<?xml version="1.0" standalone="no"?>
<!DOCTYPE svg PUBLIC "-//W3C//DTD SVG 20010904//EN"
 "http://www.w3.org/TR/2001/REC-SVG-20010904/DTD/svg10.dtd">
<svg version="1.0" xmlns="http://www.w3.org/2000/svg"
 width="971.000000pt" height="843.000000pt" viewBox="0 0 971.000000 843.000000"
 preserveAspectRatio="xMidYMid meet">
<metadata>
Created by potrace 1.16, written by Peter Selinger 2001-2019
</metadata>
<g transform="translate(0.000000,843.000000) scale(0.100000,-0.100000)"
fill="#000000" stroke="none">
<path d="M6075 8279 c-241 -19 -536 -56 -1055 -133 -385 -57 -606 -85 -1095
-136 -753 -78 -1025 -119 -1386 -210 -482 -121 -913 -325 -1310 -621 -547
-408 -930 -919 -1072 -1429 -158 -569 -33 -1254 401 -2190 200 -431 573 -1130
830 -1555 557 -920 1081 -1456 1677 -1711 731 -314 1754 -303 2900 32 1420
414 2451 1077 3027 1944 106 160 266 477 337 670 372 1008 339 2211 -88 3292
-147 370 -338 708 -577 1018 -122 159 -399 434 -551 548 -385 287 -766 431
-1282 482 -118 11 -606 11 -756 -1z"/>
</g>
</svg>
